solid OpenSCAD_Model
  facet normal -1 0 0
    outer loop
      vertex 0 0 0
      vertex 0 57 38
      vertex 0 57 0
    endloop
  endfacet
  facet normal -1 -0 0
    outer loop
      vertex 0 57 38
      vertex 0 0 0
      vertex 0 0 38
    endloop
  endfacet
  facet normal 0 0 1
    outer loop
      vertex 91 57 38
      vertex 89.5 55.5 38
      vertex 91 0 38
    endloop
  endfacet
  facet normal 0 0 1
    outer loop
      vertex 91 57 38
      vertex 1.5 55.5 38
      vertex 89.5 55.5 38
    endloop
  endfacet
  facet normal 0 0 1
    outer loop
      vertex 1.5 55.5 38
      vertex 0 57 38
      vertex 1.5 1.5 38
    endloop
  endfacet
  facet normal -0 0 1
    outer loop
      vertex 0 57 38
      vertex 1.5 55.5 38
      vertex 91 57 38
    endloop
  endfacet
  facet normal -0 0 1
    outer loop
      vertex 89.5 1.5 38
      vertex 91 0 38
      vertex 89.5 55.5 38
    endloop
  endfacet
  facet normal -0 0 1
    outer loop
      vertex 1.5 1.5 38
      vertex 91 0 38
      vertex 89.5 1.5 38
    endloop
  endfacet
  facet normal 0 0 1
    outer loop
      vertex 1.5 1.5 38
      vertex 0 0 38
      vertex 91 0 38
    endloop
  endfacet
  facet normal 0 0 1
    outer loop
      vertex 0 0 38
      vertex 1.5 1.5 38
      vertex 0 57 38
    endloop
  endfacet
  facet normal 1 -0 0
    outer loop
      vertex 91 0 38
      vertex 91 57 0
      vertex 91 57 38
    endloop
  endfacet
  facet normal 1 0 0
    outer loop
      vertex 91 57 0
      vertex 91 0 38
      vertex 91 0 0
    endloop
  endfacet
  facet normal 0 0 -1
    outer loop
      vertex 0 0 0
      vertex 91 57 0
      vertex 91 0 0
    endloop
  endfacet
  facet normal -0 0 -1
    outer loop
      vertex 91 57 0
      vertex 0 0 0
      vertex 0 57 0
    endloop
  endfacet
  facet normal 0 -1 0
    outer loop
      vertex 0 0 38
      vertex 45.5 0 23.05
      vertex 91 0 38
    endloop
  endfacet
  facet normal 0 -1 0
    outer loop
      vertex 0 0 38
      vertex 45.2457 0 23.042
      vertex 45.5 0 23.05
    endloop
  endfacet
  facet normal 0 -1 0
    outer loop
      vertex 0 0 38
      vertex 44.9924 0 23.0181
      vertex 45.2457 0 23.042
    endloop
  endfacet
  facet normal 0 -1 0
    outer loop
      vertex 0 0 38
      vertex 44.7411 0 22.9783
      vertex 44.9924 0 23.0181
    endloop
  endfacet
  facet normal 0 -1 0
    outer loop
      vertex 0 0 38
      vertex 44.4928 0 22.9228
      vertex 44.7411 0 22.9783
    endloop
  endfacet
  facet normal 0 -1 0
    outer loop
      vertex 0 0 38
      vertex 44.2485 0 22.8518
      vertex 44.4928 0 22.9228
    endloop
  endfacet
  facet normal 0 -1 0
    outer loop
      vertex 0 0 38
      vertex 44.0091 0 22.7656
      vertex 44.2485 0 22.8518
    endloop
  endfacet
  facet normal 0 -1 0
    outer loop
      vertex 0 0 38
      vertex 43.7756 0 22.6645
      vertex 44.0091 0 22.7656
    endloop
  endfacet
  facet normal 0 -1 0
    outer loop
      vertex 0 0 38
      vertex 43.5489 0 22.549
      vertex 43.7756 0 22.6645
    endloop
  endfacet
  facet normal 0 -1 0
    outer loop
      vertex 0 0 38
      vertex 43.3299 0 22.4195
      vertex 43.5489 0 22.549
    endloop
  endfacet
  facet normal 0 -1 0
    outer loop
      vertex 0 0 38
      vertex 43.1195 0 22.2765
      vertex 43.3299 0 22.4195
    endloop
  endfacet
  facet normal 0 -1 0
    outer loop
      vertex 0 0 38
      vertex 42.9184 0 22.1206
      vertex 43.1195 0 22.2765
    endloop
  endfacet
  facet normal 0 -1 0
    outer loop
      vertex 0 0 38
      vertex 42.7276 0 21.9523
      vertex 42.9184 0 22.1206
    endloop
  endfacet
  facet normal 0 -1 0
    outer loop
      vertex 0 0 38
      vertex 42.5477 0 21.7724
      vertex 42.7276 0 21.9523
    endloop
  endfacet
  facet normal 0 -1 0
    outer loop
      vertex 0 0 38
      vertex 42.3794 0 21.5816
      vertex 42.5477 0 21.7724
    endloop
  endfacet
  facet normal 0 -1 0
    outer loop
      vertex 0 0 38
      vertex 42.2235 0 21.3805
      vertex 42.3794 0 21.5816
    endloop
  endfacet
  facet normal 0 -1 0
    outer loop
      vertex 0 0 38
      vertex 42.0805 0 21.1701
      vertex 42.2235 0 21.3805
    endloop
  endfacet
  facet normal 0 -1 0
    outer loop
      vertex 0 0 38
      vertex 41.951 0 20.9511
      vertex 42.0805 0 21.1701
    endloop
  endfacet
  facet normal 0 -1 0
    outer loop
      vertex 0 0 38
      vertex 41.8354 0 20.7244
      vertex 41.951 0 20.9511
    endloop
  endfacet
  facet normal 0 -1 0
    outer loop
      vertex 0 0 38
      vertex 41.7344 0 20.4909
      vertex 41.8354 0 20.7244
    endloop
  endfacet
  facet normal 0 -1 0
    outer loop
      vertex 0 0 38
      vertex 41.6482 0 20.2515
      vertex 41.7344 0 20.4909
    endloop
  endfacet
  facet normal 0 -1 0
    outer loop
      vertex 0 0 38
      vertex 41.5772 0 20.0072
      vertex 41.6482 0 20.2515
    endloop
  endfacet
  facet normal 0 -1 0
    outer loop
      vertex 0 0 38
      vertex 41.5217 0 19.7589
      vertex 41.5772 0 20.0072
    endloop
  endfacet
  facet normal 0 -1 0
    outer loop
      vertex 0 0 38
      vertex 41.4819 0 19.5076
      vertex 41.5217 0 19.7589
    endloop
  endfacet
  facet normal 0 -1 0
    outer loop
      vertex 0 0 38
      vertex 41.458 0 19.2543
      vertex 41.4819 0 19.5076
    endloop
  endfacet
  facet normal 0 -1 0
    outer loop
      vertex 0 0 38
      vertex 41.45 0 19
      vertex 41.458 0 19.2543
    endloop
  endfacet
  facet normal 0 -1 0
    outer loop
      vertex 0 0 0
      vertex 41.45 0 19
      vertex 0 0 38
    endloop
  endfacet
  facet normal 0 -1 -0
    outer loop
      vertex 41.45 0 19
      vertex 0 0 0
      vertex 41.458 0 18.7457
    endloop
  endfacet
  facet normal 0 -1 -0
    outer loop
      vertex 41.458 0 18.7457
      vertex 0 0 0
      vertex 41.4819 0 18.4924
    endloop
  endfacet
  facet normal 0 -1 -0
    outer loop
      vertex 41.4819 0 18.4924
      vertex 0 0 0
      vertex 41.5217 0 18.2411
    endloop
  endfacet
  facet normal 0 -1 -0
    outer loop
      vertex 41.5217 0 18.2411
      vertex 0 0 0
      vertex 41.5772 0 17.9928
    endloop
  endfacet
  facet normal 0 -1 -0
    outer loop
      vertex 41.5772 0 17.9928
      vertex 0 0 0
      vertex 41.6482 0 17.7485
    endloop
  endfacet
  facet normal 0 -1 -0
    outer loop
      vertex 41.6482 0 17.7485
      vertex 0 0 0
      vertex 41.7344 0 17.5091
    endloop
  endfacet
  facet normal 0 -1 -0
    outer loop
      vertex 41.7344 0 17.5091
      vertex 0 0 0
      vertex 41.8354 0 17.2756
    endloop
  endfacet
  facet normal 0 -1 -0
    outer loop
      vertex 41.8354 0 17.2756
      vertex 0 0 0
      vertex 41.951 0 17.0489
    endloop
  endfacet
  facet normal 0 -1 -0
    outer loop
      vertex 41.951 0 17.0489
      vertex 0 0 0
      vertex 42.0805 0 16.8299
    endloop
  endfacet
  facet normal 0 -1 -0
    outer loop
      vertex 42.0805 0 16.8299
      vertex 0 0 0
      vertex 42.2235 0 16.6195
    endloop
  endfacet
  facet normal 0 -1 -0
    outer loop
      vertex 42.2235 0 16.6195
      vertex 0 0 0
      vertex 42.3794 0 16.4184
    endloop
  endfacet
  facet normal 0 -1 -0
    outer loop
      vertex 42.3794 0 16.4184
      vertex 0 0 0
      vertex 42.5477 0 16.2276
    endloop
  endfacet
  facet normal 0 -1 -0
    outer loop
      vertex 42.5477 0 16.2276
      vertex 0 0 0
      vertex 42.7276 0 16.0477
    endloop
  endfacet
  facet normal 0 -1 -0
    outer loop
      vertex 42.7276 0 16.0477
      vertex 0 0 0
      vertex 42.9184 0 15.8794
    endloop
  endfacet
  facet normal 0 -1 -0
    outer loop
      vertex 42.9184 0 15.8794
      vertex 0 0 0
      vertex 43.1195 0 15.7235
    endloop
  endfacet
  facet normal 0 -1 -0
    outer loop
      vertex 43.1195 0 15.7235
      vertex 0 0 0
      vertex 43.3299 0 15.5805
    endloop
  endfacet
  facet normal 0 -1 -0
    outer loop
      vertex 45.2457 0 14.958
      vertex 0 0 0
      vertex 45.5 0 14.95
    endloop
  endfacet
  facet normal 0 -1 -0
    outer loop
      vertex 44.9924 0 14.9819
      vertex 0 0 0
      vertex 45.2457 0 14.958
    endloop
  endfacet
  facet normal 0 -1 -0
    outer loop
      vertex 44.7411 0 15.0217
      vertex 0 0 0
      vertex 44.9924 0 14.9819
    endloop
  endfacet
  facet normal 0 -1 -0
    outer loop
      vertex 44.4928 0 15.0772
      vertex 0 0 0
      vertex 44.7411 0 15.0217
    endloop
  endfacet
  facet normal 0 -1 -0
    outer loop
      vertex 44.2485 0 15.1482
      vertex 0 0 0
      vertex 44.4928 0 15.0772
    endloop
  endfacet
  facet normal 0 -1 -0
    outer loop
      vertex 44.0091 0 15.2344
      vertex 0 0 0
      vertex 44.2485 0 15.1482
    endloop
  endfacet
  facet normal 0 -1 -0
    outer loop
      vertex 43.7756 0 15.3355
      vertex 0 0 0
      vertex 44.0091 0 15.2344
    endloop
  endfacet
  facet normal 0 -1 -0
    outer loop
      vertex 43.5489 0 15.451
      vertex 0 0 0
      vertex 43.7756 0 15.3355
    endloop
  endfacet
  facet normal 0 -1 -0
    outer loop
      vertex 43.3299 0 15.5805
      vertex 0 0 0
      vertex 43.5489 0 15.451
    endloop
  endfacet
  facet normal 0 -1 0
    outer loop
      vertex 45.7543 0 23.042
      vertex 91 0 38
      vertex 45.5 0 23.05
    endloop
  endfacet
  facet normal 0 -1 0
    outer loop
      vertex 46.0076 0 23.0181
      vertex 91 0 38
      vertex 45.7543 0 23.042
    endloop
  endfacet
  facet normal 0 -1 0
    outer loop
      vertex 46.2589 0 22.9783
      vertex 91 0 38
      vertex 46.0076 0 23.0181
    endloop
  endfacet
  facet normal 0 -1 0
    outer loop
      vertex 46.5072 0 22.9228
      vertex 91 0 38
      vertex 46.2589 0 22.9783
    endloop
  endfacet
  facet normal 0 -1 0
    outer loop
      vertex 46.7515 0 22.8518
      vertex 91 0 38
      vertex 46.5072 0 22.9228
    endloop
  endfacet
  facet normal 0 -1 0
    outer loop
      vertex 46.9909 0 22.7656
      vertex 91 0 38
      vertex 46.7515 0 22.8518
    endloop
  endfacet
  facet normal 0 -1 0
    outer loop
      vertex 47.2244 0 22.6645
      vertex 91 0 38
      vertex 46.9909 0 22.7656
    endloop
  endfacet
  facet normal 0 -1 0
    outer loop
      vertex 47.4511 0 22.549
      vertex 91 0 38
      vertex 47.2244 0 22.6645
    endloop
  endfacet
  facet normal 0 -1 0
    outer loop
      vertex 47.6701 0 22.4195
      vertex 91 0 38
      vertex 47.4511 0 22.549
    endloop
  endfacet
  facet normal 0 -1 0
    outer loop
      vertex 47.8805 0 22.2765
      vertex 91 0 38
      vertex 47.6701 0 22.4195
    endloop
  endfacet
  facet normal 0 -1 0
    outer loop
      vertex 48.0816 0 22.1206
      vertex 91 0 38
      vertex 47.8805 0 22.2765
    endloop
  endfacet
  facet normal 0 -1 0
    outer loop
      vertex 48.2724 0 21.9523
      vertex 91 0 38
      vertex 48.0816 0 22.1206
    endloop
  endfacet
  facet normal 0 -1 0
    outer loop
      vertex 48.4523 0 21.7724
      vertex 91 0 38
      vertex 48.2724 0 21.9523
    endloop
  endfacet
  facet normal 0 -1 0
    outer loop
      vertex 48.6206 0 21.5816
      vertex 91 0 38
      vertex 48.4523 0 21.7724
    endloop
  endfacet
  facet normal 0 -1 0
    outer loop
      vertex 48.7765 0 21.3805
      vertex 91 0 38
      vertex 48.6206 0 21.5816
    endloop
  endfacet
  facet normal 0 -1 0
    outer loop
      vertex 48.9195 0 21.1701
      vertex 91 0 38
      vertex 48.7765 0 21.3805
    endloop
  endfacet
  facet normal 0 -1 0
    outer loop
      vertex 49.049 0 20.9511
      vertex 91 0 38
      vertex 48.9195 0 21.1701
    endloop
  endfacet
  facet normal 0 -1 0
    outer loop
      vertex 49.1646 0 20.7244
      vertex 91 0 38
      vertex 49.049 0 20.9511
    endloop
  endfacet
  facet normal 0 -1 0
    outer loop
      vertex 49.2656 0 20.4909
      vertex 91 0 38
      vertex 49.1646 0 20.7244
    endloop
  endfacet
  facet normal 0 -1 0
    outer loop
      vertex 49.3518 0 20.2515
      vertex 91 0 38
      vertex 49.2656 0 20.4909
    endloop
  endfacet
  facet normal 0 -1 0
    outer loop
      vertex 49.4228 0 20.0072
      vertex 91 0 38
      vertex 49.3518 0 20.2515
    endloop
  endfacet
  facet normal 0 -1 0
    outer loop
      vertex 49.4783 0 19.7589
      vertex 91 0 38
      vertex 49.4228 0 20.0072
    endloop
  endfacet
  facet normal 0 -1 0
    outer loop
      vertex 49.5181 0 19.5076
      vertex 91 0 38
      vertex 49.4783 0 19.7589
    endloop
  endfacet
  facet normal 0 -1 0
    outer loop
      vertex 49.542 0 19.2543
      vertex 91 0 38
      vertex 49.5181 0 19.5076
    endloop
  endfacet
  facet normal 0 -1 0
    outer loop
      vertex 49.55 0 19
      vertex 91 0 38
      vertex 49.542 0 19.2543
    endloop
  endfacet
  facet normal 0 -1 0
    outer loop
      vertex 91 0 0
      vertex 49.55 0 19
      vertex 49.542 0 18.7457
    endloop
  endfacet
  facet normal 0 -1 0
    outer loop
      vertex 91 0 0
      vertex 49.542 0 18.7457
      vertex 49.5181 0 18.4924
    endloop
  endfacet
  facet normal 0 -1 0
    outer loop
      vertex 91 0 0
      vertex 49.5181 0 18.4924
      vertex 49.4783 0 18.2411
    endloop
  endfacet
  facet normal 0 -1 0
    outer loop
      vertex 91 0 0
      vertex 49.4783 0 18.2411
      vertex 49.4228 0 17.9928
    endloop
  endfacet
  facet normal 0 -1 0
    outer loop
      vertex 91 0 0
      vertex 49.4228 0 17.9928
      vertex 49.3518 0 17.7485
    endloop
  endfacet
  facet normal 0 -1 0
    outer loop
      vertex 91 0 0
      vertex 49.3518 0 17.7485
      vertex 49.2656 0 17.5091
    endloop
  endfacet
  facet normal 0 -1 0
    outer loop
      vertex 91 0 0
      vertex 49.2656 0 17.5091
      vertex 49.1646 0 17.2756
    endloop
  endfacet
  facet normal 0 -1 0
    outer loop
      vertex 91 0 0
      vertex 49.1646 0 17.2756
      vertex 49.049 0 17.0489
    endloop
  endfacet
  facet normal 0 -1 0
    outer loop
      vertex 91 0 0
      vertex 49.049 0 17.0489
      vertex 48.9195 0 16.8299
    endloop
  endfacet
  facet normal 0 -1 0
    outer loop
      vertex 91 0 0
      vertex 48.9195 0 16.8299
      vertex 48.7765 0 16.6195
    endloop
  endfacet
  facet normal 0 -1 0
    outer loop
      vertex 91 0 0
      vertex 48.7765 0 16.6195
      vertex 48.6206 0 16.4184
    endloop
  endfacet
  facet normal 0 -1 0
    outer loop
      vertex 91 0 0
      vertex 48.6206 0 16.4184
      vertex 48.4523 0 16.2276
    endloop
  endfacet
  facet normal 0 -1 0
    outer loop
      vertex 91 0 0
      vertex 48.4523 0 16.2276
      vertex 48.2724 0 16.0477
    endloop
  endfacet
  facet normal 0 -1 0
    outer loop
      vertex 91 0 0
      vertex 48.2724 0 16.0477
      vertex 48.0816 0 15.8794
    endloop
  endfacet
  facet normal 0 -1 0
    outer loop
      vertex 91 0 0
      vertex 48.0816 0 15.8794
      vertex 47.8805 0 15.7235
    endloop
  endfacet
  facet normal 0 -1 0
    outer loop
      vertex 91 0 0
      vertex 47.8805 0 15.7235
      vertex 47.6701 0 15.5805
    endloop
  endfacet
  facet normal 0 -1 0
    outer loop
      vertex 91 0 0
      vertex 47.6701 0 15.5805
      vertex 47.4511 0 15.451
    endloop
  endfacet
  facet normal 0 -1 0
    outer loop
      vertex 91 0 0
      vertex 45.5 0 14.95
      vertex 0 0 0
    endloop
  endfacet
  facet normal 0 -1 0
    outer loop
      vertex 45.5 0 14.95
      vertex 91 0 0
      vertex 45.7543 0 14.958
    endloop
  endfacet
  facet normal 0 -1 0
    outer loop
      vertex 45.7543 0 14.958
      vertex 91 0 0
      vertex 46.0076 0 14.9819
    endloop
  endfacet
  facet normal 0 -1 0
    outer loop
      vertex 46.0076 0 14.9819
      vertex 91 0 0
      vertex 46.2589 0 15.0217
    endloop
  endfacet
  facet normal 0 -1 0
    outer loop
      vertex 46.2589 0 15.0217
      vertex 91 0 0
      vertex 46.5072 0 15.0772
    endloop
  endfacet
  facet normal 0 -1 0
    outer loop
      vertex 49.55 0 19
      vertex 91 0 0
      vertex 91 0 38
    endloop
  endfacet
  facet normal 0 -1 0
    outer loop
      vertex 47.2244 0 15.3355
      vertex 91 0 0
      vertex 47.4511 0 15.451
    endloop
  endfacet
  facet normal 0 -1 0
    outer loop
      vertex 46.9909 0 15.2344
      vertex 91 0 0
      vertex 47.2244 0 15.3355
    endloop
  endfacet
  facet normal 0 -1 0
    outer loop
      vertex 46.7515 0 15.1482
      vertex 91 0 0
      vertex 46.9909 0 15.2344
    endloop
  endfacet
  facet normal 0 -1 0
    outer loop
      vertex 46.5072 0 15.0772
      vertex 91 0 0
      vertex 46.7515 0 15.1482
    endloop
  endfacet
  facet normal 0 1 0
    outer loop
      vertex 91 57 38
      vertex 52 57 25.5
      vertex 0 57 38
    endloop
  endfacet
  facet normal 0 1 0
    outer loop
      vertex 91 57 38
      vertex 52 57 12.5
      vertex 52 57 25.5
    endloop
  endfacet
  facet normal 0 1 0
    outer loop
      vertex 52 57 12.5
      vertex 91 57 0
      vertex 39 57 12.5
    endloop
  endfacet
  facet normal 0 1 -0
    outer loop
      vertex 91 57 0
      vertex 52 57 12.5
      vertex 91 57 38
    endloop
  endfacet
  facet normal 0 1 -0
    outer loop
      vertex 39 57 25.5
      vertex 0 57 38
      vertex 52 57 25.5
    endloop
  endfacet
  facet normal 0 1 -0
    outer loop
      vertex 39 57 12.5
      vertex 0 57 38
      vertex 39 57 25.5
    endloop
  endfacet
  facet normal 0 1 0
    outer loop
      vertex 39 57 12.5
      vertex 0 57 0
      vertex 0 57 38
    endloop
  endfacet
  facet normal 0 1 0
    outer loop
      vertex 0 57 0
      vertex 39 57 12.5
      vertex 91 57 0
    endloop
  endfacet
  facet normal 1 -0 0
    outer loop
      vertex 1.5 1.5 38
      vertex 1.5 55.5 1.5
      vertex 1.5 55.5 38
    endloop
  endfacet
  facet normal 1 0 0
    outer loop
      vertex 1.5 55.5 1.5
      vertex 1.5 1.5 38
      vertex 1.5 1.5 1.5
    endloop
  endfacet
  facet normal -1 0 0
    outer loop
      vertex 89.5 1.5 1.5
      vertex 89.5 55.5 38
      vertex 89.5 55.5 1.5
    endloop
  endfacet
  facet normal -1 -0 0
    outer loop
      vertex 89.5 55.5 38
      vertex 89.5 1.5 1.5
      vertex 89.5 1.5 38
    endloop
  endfacet
  facet normal -0 0 1
    outer loop
      vertex 1.5 55.5 1.5
      vertex 89.5 1.5 1.5
      vertex 89.5 55.5 1.5
    endloop
  endfacet
  facet normal 0 0 1
    outer loop
      vertex 89.5 1.5 1.5
      vertex 1.5 55.5 1.5
      vertex 1.5 1.5 1.5
    endloop
  endfacet
  facet normal 0 1 0
    outer loop
      vertex 89.5 1.5 38
      vertex 45.5 1.5 23.05
      vertex 1.5 1.5 38
    endloop
  endfacet
  facet normal 0 1 0
    outer loop
      vertex 89.5 1.5 38
      vertex 45.7543 1.5 23.042
      vertex 45.5 1.5 23.05
    endloop
  endfacet
  facet normal 0 1 0
    outer loop
      vertex 89.5 1.5 38
      vertex 46.0076 1.5 23.0181
      vertex 45.7543 1.5 23.042
    endloop
  endfacet
  facet normal 0 1 0
    outer loop
      vertex 89.5 1.5 38
      vertex 46.2589 1.5 22.9783
      vertex 46.0076 1.5 23.0181
    endloop
  endfacet
  facet normal 0 1 0
    outer loop
      vertex 89.5 1.5 38
      vertex 46.5072 1.5 22.9228
      vertex 46.2589 1.5 22.9783
    endloop
  endfacet
  facet normal 0 1 0
    outer loop
      vertex 89.5 1.5 38
      vertex 46.7515 1.5 22.8518
      vertex 46.5072 1.5 22.9228
    endloop
  endfacet
  facet normal 0 1 0
    outer loop
      vertex 89.5 1.5 38
      vertex 46.9909 1.5 22.7656
      vertex 46.7515 1.5 22.8518
    endloop
  endfacet
  facet normal 0 1 0
    outer loop
      vertex 89.5 1.5 38
      vertex 47.2244 1.5 22.6645
      vertex 46.9909 1.5 22.7656
    endloop
  endfacet
  facet normal 0 1 0
    outer loop
      vertex 89.5 1.5 38
      vertex 47.4511 1.5 22.549
      vertex 47.2244 1.5 22.6645
    endloop
  endfacet
  facet normal 0 1 0
    outer loop
      vertex 89.5 1.5 38
      vertex 47.6701 1.5 22.4195
      vertex 47.4511 1.5 22.549
    endloop
  endfacet
  facet normal 0 1 0
    outer loop
      vertex 89.5 1.5 38
      vertex 47.8805 1.5 22.2765
      vertex 47.6701 1.5 22.4195
    endloop
  endfacet
  facet normal 0 1 0
    outer loop
      vertex 89.5 1.5 38
      vertex 48.0816 1.5 22.1206
      vertex 47.8805 1.5 22.2765
    endloop
  endfacet
  facet normal 0 1 0
    outer loop
      vertex 89.5 1.5 38
      vertex 48.2724 1.5 21.9523
      vertex 48.0816 1.5 22.1206
    endloop
  endfacet
  facet normal 0 1 0
    outer loop
      vertex 89.5 1.5 38
      vertex 48.4523 1.5 21.7724
      vertex 48.2724 1.5 21.9523
    endloop
  endfacet
  facet normal 0 1 0
    outer loop
      vertex 89.5 1.5 38
      vertex 48.6206 1.5 21.5816
      vertex 48.4523 1.5 21.7724
    endloop
  endfacet
  facet normal 0 1 0
    outer loop
      vertex 89.5 1.5 38
      vertex 48.7765 1.5 21.3805
      vertex 48.6206 1.5 21.5816
    endloop
  endfacet
  facet normal 0 1 0
    outer loop
      vertex 89.5 1.5 38
      vertex 48.9195 1.5 21.1701
      vertex 48.7765 1.5 21.3805
    endloop
  endfacet
  facet normal 0 1 0
    outer loop
      vertex 89.5 1.5 38
      vertex 49.049 1.5 20.9511
      vertex 48.9195 1.5 21.1701
    endloop
  endfacet
  facet normal 0 1 0
    outer loop
      vertex 89.5 1.5 38
      vertex 49.1646 1.5 20.7244
      vertex 49.049 1.5 20.9511
    endloop
  endfacet
  facet normal 0 1 0
    outer loop
      vertex 89.5 1.5 38
      vertex 49.2656 1.5 20.4909
      vertex 49.1646 1.5 20.7244
    endloop
  endfacet
  facet normal 0 1 0
    outer loop
      vertex 89.5 1.5 38
      vertex 49.3518 1.5 20.2515
      vertex 49.2656 1.5 20.4909
    endloop
  endfacet
  facet normal 0 1 0
    outer loop
      vertex 89.5 1.5 38
      vertex 49.4228 1.5 20.0072
      vertex 49.3518 1.5 20.2515
    endloop
  endfacet
  facet normal 0 1 0
    outer loop
      vertex 89.5 1.5 38
      vertex 49.4783 1.5 19.7589
      vertex 49.4228 1.5 20.0072
    endloop
  endfacet
  facet normal 0 1 0
    outer loop
      vertex 89.5 1.5 38
      vertex 49.5181 1.5 19.5076
      vertex 49.4783 1.5 19.7589
    endloop
  endfacet
  facet normal 0 1 0
    outer loop
      vertex 89.5 1.5 38
      vertex 49.542 1.5 19.2543
      vertex 49.5181 1.5 19.5076
    endloop
  endfacet
  facet normal 0 1 0
    outer loop
      vertex 89.5 1.5 38
      vertex 49.55 1.5 19
      vertex 49.542 1.5 19.2543
    endloop
  endfacet
  facet normal 0 1 -0
    outer loop
      vertex 89.5 1.5 1.5
      vertex 49.55 1.5 19
      vertex 89.5 1.5 38
    endloop
  endfacet
  facet normal 0 1 0
    outer loop
      vertex 49.55 1.5 19
      vertex 89.5 1.5 1.5
      vertex 49.542 1.5 18.7457
    endloop
  endfacet
  facet normal 0 1 0
    outer loop
      vertex 49.542 1.5 18.7457
      vertex 89.5 1.5 1.5
      vertex 49.5181 1.5 18.4924
    endloop
  endfacet
  facet normal 0 1 0
    outer loop
      vertex 49.5181 1.5 18.4924
      vertex 89.5 1.5 1.5
      vertex 49.4783 1.5 18.2411
    endloop
  endfacet
  facet normal 0 1 0
    outer loop
      vertex 49.4783 1.5 18.2411
      vertex 89.5 1.5 1.5
      vertex 49.4228 1.5 17.9928
    endloop
  endfacet
  facet normal 0 1 0
    outer loop
      vertex 49.4228 1.5 17.9928
      vertex 89.5 1.5 1.5
      vertex 49.3518 1.5 17.7485
    endloop
  endfacet
  facet normal 0 1 0
    outer loop
      vertex 49.3518 1.5 17.7485
      vertex 89.5 1.5 1.5
      vertex 49.2656 1.5 17.5091
    endloop
  endfacet
  facet normal 0 1 0
    outer loop
      vertex 49.2656 1.5 17.5091
      vertex 89.5 1.5 1.5
      vertex 49.1646 1.5 17.2756
    endloop
  endfacet
  facet normal 0 1 0
    outer loop
      vertex 49.1646 1.5 17.2756
      vertex 89.5 1.5 1.5
      vertex 49.049 1.5 17.0489
    endloop
  endfacet
  facet normal 0 1 0
    outer loop
      vertex 49.049 1.5 17.0489
      vertex 89.5 1.5 1.5
      vertex 48.9195 1.5 16.8299
    endloop
  endfacet
  facet normal 0 1 0
    outer loop
      vertex 48.9195 1.5 16.8299
      vertex 89.5 1.5 1.5
      vertex 48.7765 1.5 16.6195
    endloop
  endfacet
  facet normal 0 1 0
    outer loop
      vertex 48.7765 1.5 16.6195
      vertex 89.5 1.5 1.5
      vertex 48.6206 1.5 16.4184
    endloop
  endfacet
  facet normal 0 1 0
    outer loop
      vertex 48.6206 1.5 16.4184
      vertex 89.5 1.5 1.5
      vertex 48.4523 1.5 16.2276
    endloop
  endfacet
  facet normal 0 1 0
    outer loop
      vertex 48.4523 1.5 16.2276
      vertex 89.5 1.5 1.5
      vertex 48.2724 1.5 16.0477
    endloop
  endfacet
  facet normal 0 1 0
    outer loop
      vertex 48.2724 1.5 16.0477
      vertex 89.5 1.5 1.5
      vertex 48.0816 1.5 15.8794
    endloop
  endfacet
  facet normal 0 1 0
    outer loop
      vertex 48.0816 1.5 15.8794
      vertex 89.5 1.5 1.5
      vertex 47.8805 1.5 15.7235
    endloop
  endfacet
  facet normal 0 1 0
    outer loop
      vertex 47.8805 1.5 15.7235
      vertex 89.5 1.5 1.5
      vertex 47.6701 1.5 15.5805
    endloop
  endfacet
  facet normal 0 1 0
    outer loop
      vertex 45.7543 1.5 14.958
      vertex 89.5 1.5 1.5
      vertex 45.5 1.5 14.95
    endloop
  endfacet
  facet normal 0 1 0
    outer loop
      vertex 46.0076 1.5 14.9819
      vertex 89.5 1.5 1.5
      vertex 45.7543 1.5 14.958
    endloop
  endfacet
  facet normal 0 1 0
    outer loop
      vertex 46.2589 1.5 15.0217
      vertex 89.5 1.5 1.5
      vertex 46.0076 1.5 14.9819
    endloop
  endfacet
  facet normal 0 1 0
    outer loop
      vertex 46.5072 1.5 15.0772
      vertex 89.5 1.5 1.5
      vertex 46.2589 1.5 15.0217
    endloop
  endfacet
  facet normal 0 1 0
    outer loop
      vertex 46.7515 1.5 15.1482
      vertex 89.5 1.5 1.5
      vertex 46.5072 1.5 15.0772
    endloop
  endfacet
  facet normal 0 1 0
    outer loop
      vertex 46.9909 1.5 15.2344
      vertex 89.5 1.5 1.5
      vertex 46.7515 1.5 15.1482
    endloop
  endfacet
  facet normal 0 1 0
    outer loop
      vertex 47.2244 1.5 15.3355
      vertex 89.5 1.5 1.5
      vertex 46.9909 1.5 15.2344
    endloop
  endfacet
  facet normal 0 1 0
    outer loop
      vertex 47.4511 1.5 15.451
      vertex 89.5 1.5 1.5
      vertex 47.2244 1.5 15.3355
    endloop
  endfacet
  facet normal 0 1 0
    outer loop
      vertex 47.6701 1.5 15.5805
      vertex 89.5 1.5 1.5
      vertex 47.4511 1.5 15.451
    endloop
  endfacet
  facet normal 0 1 -0
    outer loop
      vertex 45.2457 1.5 23.042
      vertex 1.5 1.5 38
      vertex 45.5 1.5 23.05
    endloop
  endfacet
  facet normal 0 1 -0
    outer loop
      vertex 44.9924 1.5 23.0181
      vertex 1.5 1.5 38
      vertex 45.2457 1.5 23.042
    endloop
  endfacet
  facet normal 0 1 -0
    outer loop
      vertex 44.7411 1.5 22.9783
      vertex 1.5 1.5 38
      vertex 44.9924 1.5 23.0181
    endloop
  endfacet
  facet normal 0 1 -0
    outer loop
      vertex 44.4928 1.5 22.9228
      vertex 1.5 1.5 38
      vertex 44.7411 1.5 22.9783
    endloop
  endfacet
  facet normal 0 1 -0
    outer loop
      vertex 44.2485 1.5 22.8518
      vertex 1.5 1.5 38
      vertex 44.4928 1.5 22.9228
    endloop
  endfacet
  facet normal 0 1 -0
    outer loop
      vertex 44.0091 1.5 22.7656
      vertex 1.5 1.5 38
      vertex 44.2485 1.5 22.8518
    endloop
  endfacet
  facet normal 0 1 -0
    outer loop
      vertex 43.7756 1.5 22.6645
      vertex 1.5 1.5 38
      vertex 44.0091 1.5 22.7656
    endloop
  endfacet
  facet normal 0 1 -0
    outer loop
      vertex 43.5489 1.5 22.549
      vertex 1.5 1.5 38
      vertex 43.7756 1.5 22.6645
    endloop
  endfacet
  facet normal 0 1 -0
    outer loop
      vertex 43.3299 1.5 22.4195
      vertex 1.5 1.5 38
      vertex 43.5489 1.5 22.549
    endloop
  endfacet
  facet normal 0 1 -0
    outer loop
      vertex 43.1195 1.5 22.2765
      vertex 1.5 1.5 38
      vertex 43.3299 1.5 22.4195
    endloop
  endfacet
  facet normal 0 1 -0
    outer loop
      vertex 42.9184 1.5 22.1206
      vertex 1.5 1.5 38
      vertex 43.1195 1.5 22.2765
    endloop
  endfacet
  facet normal 0 1 -0
    outer loop
      vertex 42.7276 1.5 21.9523
      vertex 1.5 1.5 38
      vertex 42.9184 1.5 22.1206
    endloop
  endfacet
  facet normal 0 1 -0
    outer loop
      vertex 42.5477 1.5 21.7724
      vertex 1.5 1.5 38
      vertex 42.7276 1.5 21.9523
    endloop
  endfacet
  facet normal 0 1 -0
    outer loop
      vertex 42.3794 1.5 21.5816
      vertex 1.5 1.5 38
      vertex 42.5477 1.5 21.7724
    endloop
  endfacet
  facet normal 0 1 -0
    outer loop
      vertex 42.2235 1.5 21.3805
      vertex 1.5 1.5 38
      vertex 42.3794 1.5 21.5816
    endloop
  endfacet
  facet normal 0 1 -0
    outer loop
      vertex 42.0805 1.5 21.1701
      vertex 1.5 1.5 38
      vertex 42.2235 1.5 21.3805
    endloop
  endfacet
  facet normal 0 1 -0
    outer loop
      vertex 41.951 1.5 20.9511
      vertex 1.5 1.5 38
      vertex 42.0805 1.5 21.1701
    endloop
  endfacet
  facet normal 0 1 -0
    outer loop
      vertex 41.8354 1.5 20.7244
      vertex 1.5 1.5 38
      vertex 41.951 1.5 20.9511
    endloop
  endfacet
  facet normal 0 1 -0
    outer loop
      vertex 41.7344 1.5 20.4909
      vertex 1.5 1.5 38
      vertex 41.8354 1.5 20.7244
    endloop
  endfacet
  facet normal 0 1 -0
    outer loop
      vertex 41.6482 1.5 20.2515
      vertex 1.5 1.5 38
      vertex 41.7344 1.5 20.4909
    endloop
  endfacet
  facet normal 0 1 -0
    outer loop
      vertex 41.5772 1.5 20.0072
      vertex 1.5 1.5 38
      vertex 41.6482 1.5 20.2515
    endloop
  endfacet
  facet normal 0 1 -0
    outer loop
      vertex 41.5217 1.5 19.7589
      vertex 1.5 1.5 38
      vertex 41.5772 1.5 20.0072
    endloop
  endfacet
  facet normal 0 1 -0
    outer loop
      vertex 41.4819 1.5 19.5076
      vertex 1.5 1.5 38
      vertex 41.5217 1.5 19.7589
    endloop
  endfacet
  facet normal 0 1 -0
    outer loop
      vertex 41.458 1.5 19.2543
      vertex 1.5 1.5 38
      vertex 41.4819 1.5 19.5076
    endloop
  endfacet
  facet normal 0 1 -0
    outer loop
      vertex 41.45 1.5 19
      vertex 1.5 1.5 38
      vertex 41.458 1.5 19.2543
    endloop
  endfacet
  facet normal 0 1 0
    outer loop
      vertex 1.5 1.5 1.5
      vertex 41.45 1.5 19
      vertex 41.458 1.5 18.7457
    endloop
  endfacet
  facet normal 0 1 0
    outer loop
      vertex 1.5 1.5 1.5
      vertex 41.458 1.5 18.7457
      vertex 41.4819 1.5 18.4924
    endloop
  endfacet
  facet normal 0 1 0
    outer loop
      vertex 1.5 1.5 1.5
      vertex 41.4819 1.5 18.4924
      vertex 41.5217 1.5 18.2411
    endloop
  endfacet
  facet normal 0 1 0
    outer loop
      vertex 1.5 1.5 1.5
      vertex 41.5217 1.5 18.2411
      vertex 41.5772 1.5 17.9928
    endloop
  endfacet
  facet normal 0 1 0
    outer loop
      vertex 1.5 1.5 1.5
      vertex 41.5772 1.5 17.9928
      vertex 41.6482 1.5 17.7485
    endloop
  endfacet
  facet normal 0 1 0
    outer loop
      vertex 1.5 1.5 1.5
      vertex 41.6482 1.5 17.7485
      vertex 41.7344 1.5 17.5091
    endloop
  endfacet
  facet normal 0 1 0
    outer loop
      vertex 1.5 1.5 1.5
      vertex 41.7344 1.5 17.5091
      vertex 41.8354 1.5 17.2756
    endloop
  endfacet
  facet normal 0 1 0
    outer loop
      vertex 1.5 1.5 1.5
      vertex 41.8354 1.5 17.2756
      vertex 41.951 1.5 17.0489
    endloop
  endfacet
  facet normal 0 1 0
    outer loop
      vertex 1.5 1.5 1.5
      vertex 41.951 1.5 17.0489
      vertex 42.0805 1.5 16.8299
    endloop
  endfacet
  facet normal 0 1 0
    outer loop
      vertex 1.5 1.5 1.5
      vertex 42.0805 1.5 16.8299
      vertex 42.2235 1.5 16.6195
    endloop
  endfacet
  facet normal 0 1 0
    outer loop
      vertex 1.5 1.5 1.5
      vertex 42.2235 1.5 16.6195
      vertex 42.3794 1.5 16.4184
    endloop
  endfacet
  facet normal 0 1 0
    outer loop
      vertex 1.5 1.5 1.5
      vertex 42.3794 1.5 16.4184
      vertex 42.5477 1.5 16.2276
    endloop
  endfacet
  facet normal 0 1 0
    outer loop
      vertex 1.5 1.5 1.5
      vertex 42.5477 1.5 16.2276
      vertex 42.7276 1.5 16.0477
    endloop
  endfacet
  facet normal 0 1 0
    outer loop
      vertex 1.5 1.5 1.5
      vertex 42.7276 1.5 16.0477
      vertex 42.9184 1.5 15.8794
    endloop
  endfacet
  facet normal 0 1 0
    outer loop
      vertex 1.5 1.5 1.5
      vertex 42.9184 1.5 15.8794
      vertex 43.1195 1.5 15.7235
    endloop
  endfacet
  facet normal 0 1 0
    outer loop
      vertex 1.5 1.5 1.5
      vertex 43.1195 1.5 15.7235
      vertex 43.3299 1.5 15.5805
    endloop
  endfacet
  facet normal 0 1 0
    outer loop
      vertex 1.5 1.5 1.5
      vertex 43.3299 1.5 15.5805
      vertex 43.5489 1.5 15.451
    endloop
  endfacet
  facet normal 0 1 0
    outer loop
      vertex 1.5 1.5 1.5
      vertex 45.5 1.5 14.95
      vertex 89.5 1.5 1.5
    endloop
  endfacet
  facet normal 0 1 0
    outer loop
      vertex 45.5 1.5 14.95
      vertex 1.5 1.5 1.5
      vertex 45.2457 1.5 14.958
    endloop
  endfacet
  facet normal 0 1 0
    outer loop
      vertex 45.2457 1.5 14.958
      vertex 1.5 1.5 1.5
      vertex 44.9924 1.5 14.9819
    endloop
  endfacet
  facet normal 0 1 0
    outer loop
      vertex 44.9924 1.5 14.9819
      vertex 1.5 1.5 1.5
      vertex 44.7411 1.5 15.0217
    endloop
  endfacet
  facet normal 0 1 0
    outer loop
      vertex 44.7411 1.5 15.0217
      vertex 1.5 1.5 1.5
      vertex 44.4928 1.5 15.0772
    endloop
  endfacet
  facet normal 0 1 0
    outer loop
      vertex 41.45 1.5 19
      vertex 1.5 1.5 1.5
      vertex 1.5 1.5 38
    endloop
  endfacet
  facet normal 0 1 0
    outer loop
      vertex 43.7756 1.5 15.3355
      vertex 1.5 1.5 1.5
      vertex 43.5489 1.5 15.451
    endloop
  endfacet
  facet normal 0 1 0
    outer loop
      vertex 44.0091 1.5 15.2344
      vertex 1.5 1.5 1.5
      vertex 43.7756 1.5 15.3355
    endloop
  endfacet
  facet normal 0 1 0
    outer loop
      vertex 44.2485 1.5 15.1482
      vertex 1.5 1.5 1.5
      vertex 44.0091 1.5 15.2344
    endloop
  endfacet
  facet normal 0 1 0
    outer loop
      vertex 44.4928 1.5 15.0772
      vertex 1.5 1.5 1.5
      vertex 44.2485 1.5 15.1482
    endloop
  endfacet
  facet normal 0 -1 0
    outer loop
      vertex 1.5 55.5 38
      vertex 39 55.5 25.5
      vertex 89.5 55.5 38
    endloop
  endfacet
  facet normal 0 -1 0
    outer loop
      vertex 1.5 55.5 1.5
      vertex 39 55.5 25.5
      vertex 1.5 55.5 38
    endloop
  endfacet
  facet normal 0 -1 -0
    outer loop
      vertex 39 55.5 12.5
      vertex 1.5 55.5 1.5
      vertex 52 55.5 12.5
    endloop
  endfacet
  facet normal 0 -1 -0
    outer loop
      vertex 39 55.5 25.5
      vertex 1.5 55.5 1.5
      vertex 39 55.5 12.5
    endloop
  endfacet
  facet normal 0 -1 0
    outer loop
      vertex 52 55.5 25.5
      vertex 89.5 55.5 38
      vertex 39 55.5 25.5
    endloop
  endfacet
  facet normal 0 -1 0
    outer loop
      vertex 89.5 55.5 1.5
      vertex 52 55.5 25.5
      vertex 52 55.5 12.5
    endloop
  endfacet
  facet normal 0 -1 0
    outer loop
      vertex 52 55.5 25.5
      vertex 89.5 55.5 1.5
      vertex 89.5 55.5 38
    endloop
  endfacet
  facet normal 0 -1 0
    outer loop
      vertex 89.5 55.5 1.5
      vertex 52 55.5 12.5
      vertex 1.5 55.5 1.5
    endloop
  endfacet
  facet normal 1 -0 0
    outer loop
      vertex 39 55.5 25.5
      vertex 39 57 12.5
      vertex 39 57 25.5
    endloop
  endfacet
  facet normal 1 0 0
    outer loop
      vertex 39 57 12.5
      vertex 39 55.5 25.5
      vertex 39 55.5 12.5
    endloop
  endfacet
  facet normal 0 0 -1
    outer loop
      vertex 39 55.5 25.5
      vertex 52 57 25.5
      vertex 52 55.5 25.5
    endloop
  endfacet
  facet normal -0 0 -1
    outer loop
      vertex 52 57 25.5
      vertex 39 55.5 25.5
      vertex 39 57 25.5
    endloop
  endfacet
  facet normal -1 0 0
    outer loop
      vertex 52 55.5 12.5
      vertex 52 57 25.5
      vertex 52 57 12.5
    endloop
  endfacet
  facet normal -1 -0 0
    outer loop
      vertex 52 57 25.5
      vertex 52 55.5 12.5
      vertex 52 55.5 25.5
    endloop
  endfacet
  facet normal -0 0 1
    outer loop
      vertex 39 57 12.5
      vertex 52 55.5 12.5
      vertex 52 57 12.5
    endloop
  endfacet
  facet normal 0 0 1
    outer loop
      vertex 52 55.5 12.5
      vertex 39 57 12.5
      vertex 39 55.5 12.5
    endloop
  endfacet
  facet normal -0.999507 0 0.0314108
    outer loop
      vertex 49.542 0 18.7457
      vertex 49.55 1.5 19
      vertex 49.542 1.5 18.7457
    endloop
  endfacet
  facet normal -0.999507 0 0.0314108
    outer loop
      vertex 49.55 1.5 19
      vertex 49.542 0 18.7457
      vertex 49.55 0 19
    endloop
  endfacet
  facet normal -0.960292 0 0.278996
    outer loop
      vertex 49.3518 0 17.7485
      vertex 49.4228 1.5 17.9928
      vertex 49.3518 1.5 17.7485
    endloop
  endfacet
  facet normal -0.960292 0 0.278996
    outer loop
      vertex 49.4228 1.5 17.9928
      vertex 49.3518 0 17.7485
      vertex 49.4228 0 17.9928
    endloop
  endfacet
  facet normal -0.750111 0 0.661312
    outer loop
      vertex 48.4523 0 16.2276
      vertex 48.6206 1.5 16.4184
      vertex 48.4523 1.5 16.2276
    endloop
  endfacet
  facet normal -0.750111 0 0.661312
    outer loop
      vertex 48.6206 1.5 16.4184
      vertex 48.4523 0 16.2276
      vertex 48.6206 0 16.4184
    endloop
  endfacet
  facet normal -0.0941061 0 0.995562
    outer loop
      vertex 45.7543 1.5 14.958
      vertex 46.0076 0 14.9819
      vertex 46.0076 1.5 14.9819
    endloop
  endfacet
  facet normal -0.0941061 0 0.995562
    outer loop
      vertex 46.0076 0 14.9819
      vertex 45.7543 1.5 14.958
      vertex 45.7543 0 14.958
    endloop
  endfacet
  facet normal -0.453984 0 0.89101
    outer loop
      vertex 47.2244 1.5 15.3355
      vertex 47.4511 0 15.451
      vertex 47.4511 1.5 15.451
    endloop
  endfacet
  facet normal -0.453984 0 0.89101
    outer loop
      vertex 47.4511 0 15.451
      vertex 47.2244 1.5 15.3355
      vertex 47.2244 0 15.3355
    endloop
  endfacet
  facet normal 0.860744 -0 0.509038
    outer loop
      vertex 41.951 0 17.0489
      vertex 42.0805 1.5 16.8299
      vertex 41.951 1.5 17.0489
    endloop
  endfacet
  facet normal 0.860744 0 0.509038
    outer loop
      vertex 42.0805 1.5 16.8299
      vertex 41.951 0 17.0489
      vertex 42.0805 0 16.8299
    endloop
  endfacet
  facet normal 0.995563 -0 0.0940987
    outer loop
      vertex 41.458 0 18.7457
      vertex 41.4819 1.5 18.4924
      vertex 41.458 1.5 18.7457
    endloop
  endfacet
  facet normal 0.995563 0 0.0940987
    outer loop
      vertex 41.4819 1.5 18.4924
      vertex 41.458 0 18.7457
      vertex 41.4819 0 18.4924
    endloop
  endfacet
  facet normal 0.612914 0 0.79015
    outer loop
      vertex 42.9184 1.5 15.8794
      vertex 43.1195 0 15.7235
      vertex 43.1195 1.5 15.7235
    endloop
  endfacet
  facet normal 0.612914 0 0.79015
    outer loop
      vertex 43.1195 0 15.7235
      vertex 42.9184 1.5 15.8794
      vertex 42.9184 0 15.8794
    endloop
  endfacet
  facet normal 0.278992 0 0.960293
    outer loop
      vertex 44.2485 1.5 15.1482
      vertex 44.4928 0 15.0772
      vertex 44.4928 1.5 15.0772
    endloop
  endfacet
  facet normal 0.278992 0 0.960293
    outer loop
      vertex 44.4928 0 15.0772
      vertex 44.2485 1.5 15.1482
      vertex 44.2485 0 15.1482
    endloop
  endfacet
  facet normal -0.860742 0 -0.509041
    outer loop
      vertex 49.049 0 20.9511
      vertex 48.9195 1.5 21.1701
      vertex 49.049 1.5 20.9511
    endloop
  endfacet
  facet normal -0.860742 -0 -0.509041
    outer loop
      vertex 48.9195 1.5 21.1701
      vertex 49.049 0 20.9511
      vertex 48.9195 0 21.1701
    endloop
  endfacet
  facet normal -0.218153 0 -0.975915
    outer loop
      vertex 46.2589 0 22.9783
      vertex 46.5072 1.5 22.9228
      vertex 46.5072 0 22.9228
    endloop
  endfacet
  facet normal -0.218153 0 -0.975915
    outer loop
      vertex 46.5072 1.5 22.9228
      vertex 46.2589 0 22.9783
      vertex 46.2589 1.5 22.9783
    endloop
  endfacet
  facet normal -0.661313 0 -0.75011
    outer loop
      vertex 48.0816 0 22.1206
      vertex 48.2724 1.5 21.9523
      vertex 48.2724 0 21.9523
    endloop
  endfacet
  facet normal -0.661313 0 -0.75011
    outer loop
      vertex 48.2724 1.5 21.9523
      vertex 48.0816 0 22.1206
      vertex 48.0816 1.5 22.1206
    endloop
  endfacet
  facet normal 0.338734 0 -0.940882
    outer loop
      vertex 44.0091 0 22.7656
      vertex 44.2485 1.5 22.8518
      vertex 44.2485 0 22.8518
    endloop
  endfacet
  facet normal 0.338734 0 -0.940882
    outer loop
      vertex 44.2485 1.5 22.8518
      vertex 44.0091 0 22.7656
      vertex 44.0091 1.5 22.7656
    endloop
  endfacet
  facet normal 0.509041 0 -0.860742
    outer loop
      vertex 43.3299 0 22.4195
      vertex 43.5489 1.5 22.549
      vertex 43.5489 0 22.549
    endloop
  endfacet
  facet normal 0.509041 0 -0.860742
    outer loop
      vertex 43.5489 1.5 22.549
      vertex 43.3299 0 22.4195
      vertex 43.3299 1.5 22.4195
    endloop
  endfacet
  facet normal -0.917757 0 0.397143
    outer loop
      vertex 49.1646 0 17.2756
      vertex 49.2656 1.5 17.5091
      vertex 49.1646 1.5 17.2756
    endloop
  endfacet
  facet normal -0.917757 0 0.397143
    outer loop
      vertex 49.2656 1.5 17.5091
      vertex 49.1646 0 17.2756
      vertex 49.2656 0 17.5091
    endloop
  endfacet
  facet normal -0.891004 0 0.453996
    outer loop
      vertex 49.049 0 17.0489
      vertex 49.1646 1.5 17.2756
      vertex 49.049 1.5 17.0489
    endloop
  endfacet
  facet normal -0.891004 0 0.453996
    outer loop
      vertex 49.1646 1.5 17.2756
      vertex 49.049 0 17.0489
      vertex 49.1646 0 17.2756
    endloop
  endfacet
  facet normal -0.790153 0 0.61291
    outer loop
      vertex 48.6206 0 16.4184
      vertex 48.7765 1.5 16.6195
      vertex 48.6206 1.5 16.4184
    endloop
  endfacet
  facet normal -0.790153 0 0.61291
    outer loop
      vertex 48.7765 1.5 16.6195
      vertex 48.6206 0 16.4184
      vertex 48.7765 0 16.6195
    endloop
  endfacet
  facet normal -0.218146 0 0.975916
    outer loop
      vertex 46.2589 1.5 15.0217
      vertex 46.5072 0 15.0772
      vertex 46.5072 1.5 15.0772
    endloop
  endfacet
  facet normal -0.218146 0 0.975916
    outer loop
      vertex 46.5072 0 15.0772
      vertex 46.2589 1.5 15.0217
      vertex 46.2589 0 15.0217
    endloop
  endfacet
  facet normal -0.156435 0 0.987688
    outer loop
      vertex 46.0076 1.5 14.9819
      vertex 46.2589 0 15.0217
      vertex 46.2589 1.5 15.0217
    endloop
  endfacet
  facet normal -0.156435 0 0.987688
    outer loop
      vertex 46.2589 0 15.0217
      vertex 46.0076 1.5 14.9819
      vertex 46.0076 0 14.9819
    endloop
  endfacet
  facet normal -0.612914 0 0.79015
    outer loop
      vertex 47.8805 1.5 15.7235
      vertex 48.0816 0 15.8794
      vertex 48.0816 1.5 15.8794
    endloop
  endfacet
  facet normal -0.612914 0 0.79015
    outer loop
      vertex 48.0816 0 15.8794
      vertex 47.8805 1.5 15.7235
      vertex 47.8805 0 15.7235
    endloop
  endfacet
  facet normal -0.562079 0 0.827083
    outer loop
      vertex 47.6701 1.5 15.5805
      vertex 47.8805 0 15.7235
      vertex 47.8805 1.5 15.7235
    endloop
  endfacet
  facet normal -0.562079 0 0.827083
    outer loop
      vertex 47.8805 0 15.7235
      vertex 47.6701 1.5 15.5805
      vertex 47.6701 0 15.5805
    endloop
  endfacet
  facet normal 0.975915 -0 0.218153
    outer loop
      vertex 41.5217 0 18.2411
      vertex 41.5772 1.5 17.9928
      vertex 41.5217 1.5 18.2411
    endloop
  endfacet
  facet normal 0.975915 0 0.218153
    outer loop
      vertex 41.5772 1.5 17.9928
      vertex 41.5217 0 18.2411
      vertex 41.5772 0 17.9928
    endloop
  endfacet
  facet normal 0.987688 -0 0.156438
    outer loop
      vertex 41.4819 0 18.4924
      vertex 41.5217 1.5 18.2411
      vertex 41.4819 1.5 18.4924
    endloop
  endfacet
  facet normal 0.987688 0 0.156438
    outer loop
      vertex 41.5217 1.5 18.2411
      vertex 41.4819 0 18.4924
      vertex 41.5217 0 18.2411
    endloop
  endfacet
  facet normal 0.509044 0 0.86074
    outer loop
      vertex 43.3299 1.5 15.5805
      vertex 43.5489 0 15.451
      vertex 43.5489 1.5 15.451
    endloop
  endfacet
  facet normal 0.509044 0 0.86074
    outer loop
      vertex 43.5489 0 15.451
      vertex 43.3299 1.5 15.5805
      vertex 43.3299 0 15.5805
    endloop
  endfacet
  facet normal 0.0941061 0 0.995562
    outer loop
      vertex 44.9924 1.5 14.9819
      vertex 45.2457 0 14.958
      vertex 45.2457 1.5 14.958
    endloop
  endfacet
  facet normal 0.0941061 0 0.995562
    outer loop
      vertex 45.2457 0 14.958
      vertex 44.9924 1.5 14.9819
      vertex 44.9924 0 14.9819
    endloop
  endfacet
  facet normal 0.156435 0 0.987688
    outer loop
      vertex 44.7411 1.5 15.0217
      vertex 44.9924 0 14.9819
      vertex 44.9924 1.5 14.9819
    endloop
  endfacet
  facet normal 0.156435 0 0.987688
    outer loop
      vertex 44.9924 0 14.9819
      vertex 44.7411 1.5 15.0217
      vertex 44.7411 0 15.0217
    endloop
  endfacet
  facet normal -0.156431 0 -0.987689
    outer loop
      vertex 46.0076 0 23.0181
      vertex 46.2589 1.5 22.9783
      vertex 46.2589 0 22.9783
    endloop
  endfacet
  facet normal -0.156431 0 -0.987689
    outer loop
      vertex 46.2589 1.5 22.9783
      vertex 46.0076 0 23.0181
      vertex 46.0076 1.5 23.0181
    endloop
  endfacet
  facet normal -0.827081 0 -0.562083
    outer loop
      vertex 48.9195 0 21.1701
      vertex 48.7765 1.5 21.3805
      vertex 48.9195 1.5 21.1701
    endloop
  endfacet
  facet normal -0.827081 -0 -0.562083
    outer loop
      vertex 48.7765 1.5 21.3805
      vertex 48.9195 0 21.1701
      vertex 48.7765 0 21.3805
    endloop
  endfacet
  facet normal -0.975915 0 -0.218151
    outer loop
      vertex 49.4783 0 19.7589
      vertex 49.4228 1.5 20.0072
      vertex 49.4783 1.5 19.7589
    endloop
  endfacet
  facet normal -0.975915 -0 -0.218151
    outer loop
      vertex 49.4228 1.5 20.0072
      vertex 49.4783 0 19.7589
      vertex 49.4228 0 20.0072
    endloop
  endfacet
  facet normal 0.156431 0 -0.987689
    outer loop
      vertex 44.7411 0 22.9783
      vertex 44.9924 1.5 23.0181
      vertex 44.9924 0 23.0181
    endloop
  endfacet
  facet normal 0.156431 0 -0.987689
    outer loop
      vertex 44.9924 1.5 23.0181
      vertex 44.7411 0 22.9783
      vertex 44.7411 1.5 22.9783
    endloop
  endfacet
  facet normal 0.0941061 0 -0.995562
    outer loop
      vertex 44.9924 0 23.0181
      vertex 45.2457 1.5 23.042
      vertex 45.2457 0 23.042
    endloop
  endfacet
  facet normal 0.0941061 0 -0.995562
    outer loop
      vertex 45.2457 1.5 23.042
      vertex 44.9924 0 23.0181
      vertex 44.9924 1.5 23.0181
    endloop
  endfacet
  facet normal 0.562079 0 -0.827083
    outer loop
      vertex 43.1195 0 22.2765
      vertex 43.3299 1.5 22.4195
      vertex 43.3299 0 22.4195
    endloop
  endfacet
  facet normal 0.562079 0 -0.827083
    outer loop
      vertex 43.3299 1.5 22.4195
      vertex 43.1195 0 22.2765
      vertex 43.1195 1.5 22.2765
    endloop
  endfacet
  facet normal 0.917757 0 -0.397143
    outer loop
      vertex 41.8354 0 20.7244
      vertex 41.7344 1.5 20.4909
      vertex 41.8354 1.5 20.7244
    endloop
  endfacet
  facet normal 0.917757 0 -0.397143
    outer loop
      vertex 41.7344 1.5 20.4909
      vertex 41.8354 0 20.7244
      vertex 41.7344 0 20.4909
    endloop
  endfacet
  facet normal 0.975915 0 -0.218151
    outer loop
      vertex 41.5772 0 20.0072
      vertex 41.5217 1.5 19.7589
      vertex 41.5772 1.5 20.0072
    endloop
  endfacet
  facet normal 0.975915 0 -0.218151
    outer loop
      vertex 41.5217 1.5 19.7589
      vertex 41.5772 0 20.0072
      vertex 41.5217 0 19.7589
    endloop
  endfacet
  facet normal -0.940885 0 0.338727
    outer loop
      vertex 49.2656 0 17.5091
      vertex 49.3518 1.5 17.7485
      vertex 49.2656 1.5 17.5091
    endloop
  endfacet
  facet normal -0.940885 0 0.338727
    outer loop
      vertex 49.3518 1.5 17.7485
      vertex 49.2656 0 17.5091
      vertex 49.3518 0 17.7485
    endloop
  endfacet
  facet normal -0.707107 0 0.707107
    outer loop
      vertex 48.2724 0 16.0477
      vertex 48.4523 1.5 16.2276
      vertex 48.2724 1.5 16.0477
    endloop
  endfacet
  facet normal -0.707107 0 0.707107
    outer loop
      vertex 48.4523 1.5 16.2276
      vertex 48.2724 0 16.0477
      vertex 48.4523 0 16.2276
    endloop
  endfacet
  facet normal -0.860744 0 0.509038
    outer loop
      vertex 48.9195 0 16.8299
      vertex 49.049 1.5 17.0489
      vertex 48.9195 1.5 16.8299
    endloop
  endfacet
  facet normal -0.860744 0 0.509038
    outer loop
      vertex 49.049 1.5 17.0489
      vertex 48.9195 0 16.8299
      vertex 49.049 0 17.0489
    endloop
  endfacet
  facet normal -0.827081 0 0.562083
    outer loop
      vertex 48.7765 0 16.6195
      vertex 48.9195 1.5 16.8299
      vertex 48.7765 1.5 16.6195
    endloop
  endfacet
  facet normal -0.827081 0 0.562083
    outer loop
      vertex 48.9195 1.5 16.8299
      vertex 48.7765 0 16.6195
      vertex 48.9195 0 16.8299
    endloop
  endfacet
  facet normal -0.0314108 0 0.999507
    outer loop
      vertex 45.5 1.5 14.95
      vertex 45.7543 0 14.958
      vertex 45.7543 1.5 14.958
    endloop
  endfacet
  facet normal -0.0314108 0 0.999507
    outer loop
      vertex 45.7543 0 14.958
      vertex 45.5 1.5 14.95
      vertex 45.5 0 14.95
    endloop
  endfacet
  facet normal -0.338734 0 0.940882
    outer loop
      vertex 46.7515 1.5 15.1482
      vertex 46.9909 0 15.2344
      vertex 46.9909 1.5 15.2344
    endloop
  endfacet
  facet normal -0.338734 0 0.940882
    outer loop
      vertex 46.9909 0 15.2344
      vertex 46.7515 1.5 15.1482
      vertex 46.7515 0 15.1482
    endloop
  endfacet
  facet normal -0.278992 0 0.960293
    outer loop
      vertex 46.5072 1.5 15.0772
      vertex 46.7515 0 15.1482
      vertex 46.7515 1.5 15.1482
    endloop
  endfacet
  facet normal -0.278992 0 0.960293
    outer loop
      vertex 46.7515 0 15.1482
      vertex 46.5072 1.5 15.0772
      vertex 46.5072 0 15.0772
    endloop
  endfacet
  facet normal -0.397155 0 0.917752
    outer loop
      vertex 46.9909 1.5 15.2344
      vertex 47.2244 0 15.3355
      vertex 47.2244 1.5 15.3355
    endloop
  endfacet
  facet normal -0.397155 0 0.917752
    outer loop
      vertex 47.2244 0 15.3355
      vertex 46.9909 1.5 15.2344
      vertex 46.9909 0 15.2344
    endloop
  endfacet
  facet normal -0.509044 0 0.86074
    outer loop
      vertex 47.4511 1.5 15.451
      vertex 47.6701 0 15.5805
      vertex 47.6701 1.5 15.5805
    endloop
  endfacet
  facet normal -0.509044 0 0.86074
    outer loop
      vertex 47.6701 0 15.5805
      vertex 47.4511 1.5 15.451
      vertex 47.4511 0 15.451
    endloop
  endfacet
  facet normal -0.661309 0 0.750114
    outer loop
      vertex 48.0816 1.5 15.8794
      vertex 48.2724 0 16.0477
      vertex 48.2724 1.5 16.0477
    endloop
  endfacet
  facet normal -0.661309 0 0.750114
    outer loop
      vertex 48.2724 0 16.0477
      vertex 48.0816 1.5 15.8794
      vertex 48.0816 0 15.8794
    endloop
  endfacet
  facet normal 0.999507 -0 0.0314108
    outer loop
      vertex 41.45 0 19
      vertex 41.458 1.5 18.7457
      vertex 41.45 1.5 19
    endloop
  endfacet
  facet normal 0.999507 0 0.0314108
    outer loop
      vertex 41.458 1.5 18.7457
      vertex 41.45 0 19
      vertex 41.458 0 18.7457
    endloop
  endfacet
  facet normal 0.707107 -0 0.707107
    outer loop
      vertex 42.5477 0 16.2276
      vertex 42.7276 1.5 16.0477
      vertex 42.5477 1.5 16.2276
    endloop
  endfacet
  facet normal 0.707107 0 0.707107
    outer loop
      vertex 42.7276 1.5 16.0477
      vertex 42.5477 0 16.2276
      vertex 42.7276 0 16.0477
    endloop
  endfacet
  facet normal 0.917757 -0 0.397143
    outer loop
      vertex 41.7344 0 17.5091
      vertex 41.8354 1.5 17.2756
      vertex 41.7344 1.5 17.5091
    endloop
  endfacet
  facet normal 0.917757 0 0.397143
    outer loop
      vertex 41.8354 1.5 17.2756
      vertex 41.7344 0 17.5091
      vertex 41.8354 0 17.2756
    endloop
  endfacet
  facet normal 0.891004 -0 0.453996
    outer loop
      vertex 41.8354 0 17.2756
      vertex 41.951 1.5 17.0489
      vertex 41.8354 1.5 17.2756
    endloop
  endfacet
  facet normal 0.891004 0 0.453996
    outer loop
      vertex 41.951 1.5 17.0489
      vertex 41.8354 0 17.2756
      vertex 41.951 0 17.0489
    endloop
  endfacet
  facet normal 0.94088 -0 0.33874
    outer loop
      vertex 41.6482 0 17.7485
      vertex 41.7344 1.5 17.5091
      vertex 41.6482 1.5 17.7485
    endloop
  endfacet
  facet normal 0.94088 0 0.33874
    outer loop
      vertex 41.7344 1.5 17.5091
      vertex 41.6482 0 17.7485
      vertex 41.7344 0 17.5091
    endloop
  endfacet
  facet normal 0.960296 -0 0.278982
    outer loop
      vertex 41.5772 0 17.9928
      vertex 41.6482 1.5 17.7485
      vertex 41.5772 1.5 17.9928
    endloop
  endfacet
  facet normal 0.960296 0 0.278982
    outer loop
      vertex 41.6482 1.5 17.7485
      vertex 41.5772 0 17.9928
      vertex 41.6482 0 17.7485
    endloop
  endfacet
  facet normal 0.661309 0 0.750114
    outer loop
      vertex 42.7276 1.5 16.0477
      vertex 42.9184 0 15.8794
      vertex 42.9184 1.5 15.8794
    endloop
  endfacet
  facet normal 0.661309 0 0.750114
    outer loop
      vertex 42.9184 0 15.8794
      vertex 42.7276 1.5 16.0477
      vertex 42.7276 0 16.0477
    endloop
  endfacet
  facet normal 0.39715 0 0.917754
    outer loop
      vertex 43.7756 1.5 15.3355
      vertex 44.0091 0 15.2344
      vertex 44.0091 1.5 15.2344
    endloop
  endfacet
  facet normal 0.39715 0 0.917754
    outer loop
      vertex 44.0091 0 15.2344
      vertex 43.7756 1.5 15.3355
      vertex 43.7756 0 15.3355
    endloop
  endfacet
  facet normal 0.562079 0 0.827083
    outer loop
      vertex 43.1195 1.5 15.7235
      vertex 43.3299 0 15.5805
      vertex 43.3299 1.5 15.5805
    endloop
  endfacet
  facet normal 0.562079 0 0.827083
    outer loop
      vertex 43.3299 0 15.5805
      vertex 43.1195 1.5 15.7235
      vertex 43.1195 0 15.7235
    endloop
  endfacet
  facet normal 0.45399 0 0.891007
    outer loop
      vertex 43.5489 1.5 15.451
      vertex 43.7756 0 15.3355
      vertex 43.7756 1.5 15.3355
    endloop
  endfacet
  facet normal 0.45399 0 0.891007
    outer loop
      vertex 43.7756 0 15.3355
      vertex 43.5489 1.5 15.451
      vertex 43.5489 0 15.451
    endloop
  endfacet
  facet normal 0.338734 0 0.940882
    outer loop
      vertex 44.0091 1.5 15.2344
      vertex 44.2485 0 15.1482
      vertex 44.2485 1.5 15.1482
    endloop
  endfacet
  facet normal 0.338734 0 0.940882
    outer loop
      vertex 44.2485 0 15.1482
      vertex 44.0091 1.5 15.2344
      vertex 44.0091 0 15.2344
    endloop
  endfacet
  facet normal 0.218146 0 0.975916
    outer loop
      vertex 44.4928 1.5 15.0772
      vertex 44.7411 0 15.0217
      vertex 44.7411 1.5 15.0217
    endloop
  endfacet
  facet normal 0.218146 0 0.975916
    outer loop
      vertex 44.7411 0 15.0217
      vertex 44.4928 1.5 15.0772
      vertex 44.4928 0 15.0772
    endloop
  endfacet
  facet normal 0.0314108 0 0.999507
    outer loop
      vertex 45.2457 1.5 14.958
      vertex 45.5 0 14.95
      vertex 45.5 1.5 14.95
    endloop
  endfacet
  facet normal 0.0314108 0 0.999507
    outer loop
      vertex 45.5 0 14.95
      vertex 45.2457 1.5 14.958
      vertex 45.2457 0 14.958
    endloop
  endfacet
  facet normal -0.995563 0 -0.094098
    outer loop
      vertex 49.542 0 19.2543
      vertex 49.5181 1.5 19.5076
      vertex 49.542 1.5 19.2543
    endloop
  endfacet
  facet normal -0.995563 -0 -0.094098
    outer loop
      vertex 49.5181 1.5 19.5076
      vertex 49.542 0 19.2543
      vertex 49.5181 0 19.5076
    endloop
  endfacet
  facet normal -0.0314108 0 -0.999507
    outer loop
      vertex 45.5 0 23.05
      vertex 45.7543 1.5 23.042
      vertex 45.7543 0 23.042
    endloop
  endfacet
  facet normal -0.0314108 0 -0.999507
    outer loop
      vertex 45.7543 1.5 23.042
      vertex 45.5 0 23.05
      vertex 45.5 1.5 23.05
    endloop
  endfacet
  facet normal -0.278989 0 -0.960294
    outer loop
      vertex 46.5072 0 22.9228
      vertex 46.7515 1.5 22.8518
      vertex 46.7515 0 22.8518
    endloop
  endfacet
  facet normal -0.278989 0 -0.960294
    outer loop
      vertex 46.7515 1.5 22.8518
      vertex 46.5072 0 22.9228
      vertex 46.5072 1.5 22.9228
    endloop
  endfacet
  facet normal -0.562079 0 -0.827083
    outer loop
      vertex 47.6701 0 22.4195
      vertex 47.8805 1.5 22.2765
      vertex 47.8805 0 22.2765
    endloop
  endfacet
  facet normal -0.562079 0 -0.827083
    outer loop
      vertex 47.8805 1.5 22.2765
      vertex 47.6701 0 22.4195
      vertex 47.6701 1.5 22.4195
    endloop
  endfacet
  facet normal -0.509041 0 -0.860742
    outer loop
      vertex 47.4511 0 22.549
      vertex 47.6701 1.5 22.4195
      vertex 47.6701 0 22.4195
    endloop
  endfacet
  facet normal -0.509041 0 -0.860742
    outer loop
      vertex 47.6701 1.5 22.4195
      vertex 47.4511 0 22.549
      vertex 47.4511 1.5 22.549
    endloop
  endfacet
  facet normal -0.397155 0 -0.917752
    outer loop
      vertex 46.9909 0 22.7656
      vertex 47.2244 1.5 22.6645
      vertex 47.2244 0 22.6645
    endloop
  endfacet
  facet normal -0.397155 0 -0.917752
    outer loop
      vertex 47.2244 1.5 22.6645
      vertex 46.9909 0 22.7656
      vertex 46.9909 1.5 22.7656
    endloop
  endfacet
  facet normal -0.750114 0 -0.661309
    outer loop
      vertex 48.6206 0 21.5816
      vertex 48.4523 1.5 21.7724
      vertex 48.6206 1.5 21.5816
    endloop
  endfacet
  facet normal -0.750114 -0 -0.661309
    outer loop
      vertex 48.4523 1.5 21.7724
      vertex 48.6206 0 21.5816
      vertex 48.4523 0 21.7724
    endloop
  endfacet
  facet normal -0.891005 0 -0.453993
    outer loop
      vertex 49.1646 0 20.7244
      vertex 49.049 1.5 20.9511
      vertex 49.1646 1.5 20.7244
    endloop
  endfacet
  facet normal -0.891005 -0 -0.453993
    outer loop
      vertex 49.049 1.5 20.9511
      vertex 49.1646 0 20.7244
      vertex 49.049 0 20.9511
    endloop
  endfacet
  facet normal -0.940884 0 -0.338729
    outer loop
      vertex 49.3518 0 20.2515
      vertex 49.2656 1.5 20.4909
      vertex 49.3518 1.5 20.2515
    endloop
  endfacet
  facet normal -0.940884 -0 -0.338729
    outer loop
      vertex 49.2656 1.5 20.4909
      vertex 49.3518 0 20.2515
      vertex 49.2656 0 20.4909
    endloop
  endfacet
  facet normal -0.987688 0 -0.15644
    outer loop
      vertex 49.5181 0 19.5076
      vertex 49.4783 1.5 19.7589
      vertex 49.5181 1.5 19.5076
    endloop
  endfacet
  facet normal -0.987688 -0 -0.15644
    outer loop
      vertex 49.4783 1.5 19.7589
      vertex 49.5181 0 19.5076
      vertex 49.4783 0 19.7589
    endloop
  endfacet
  facet normal 0.661313 0 -0.75011
    outer loop
      vertex 42.7276 0 21.9523
      vertex 42.9184 1.5 22.1206
      vertex 42.9184 0 22.1206
    endloop
  endfacet
  facet normal 0.661313 0 -0.75011
    outer loop
      vertex 42.9184 1.5 22.1206
      vertex 42.7276 0 21.9523
      vertex 42.7276 1.5 21.9523
    endloop
  endfacet
  facet normal 0.218153 0 -0.975915
    outer loop
      vertex 44.4928 0 22.9228
      vertex 44.7411 1.5 22.9783
      vertex 44.7411 0 22.9783
    endloop
  endfacet
  facet normal 0.218153 0 -0.975915
    outer loop
      vertex 44.7411 1.5 22.9783
      vertex 44.4928 0 22.9228
      vertex 44.4928 1.5 22.9228
    endloop
  endfacet
  facet normal 0.45399 0 -0.891007
    outer loop
      vertex 43.5489 0 22.549
      vertex 43.7756 1.5 22.6645
      vertex 43.7756 0 22.6645
    endloop
  endfacet
  facet normal 0.45399 0 -0.891007
    outer loop
      vertex 43.7756 1.5 22.6645
      vertex 43.5489 0 22.549
      vertex 43.5489 1.5 22.549
    endloop
  endfacet
  facet normal 0.827081 0 -0.562083
    outer loop
      vertex 42.2235 0 21.3805
      vertex 42.0805 1.5 21.1701
      vertex 42.2235 1.5 21.3805
    endloop
  endfacet
  facet normal 0.827081 0 -0.562083
    outer loop
      vertex 42.0805 1.5 21.1701
      vertex 42.2235 0 21.3805
      vertex 42.0805 0 21.1701
    endloop
  endfacet
  facet normal 0.750114 0 -0.661309
    outer loop
      vertex 42.5477 0 21.7724
      vertex 42.3794 1.5 21.5816
      vertex 42.5477 1.5 21.7724
    endloop
  endfacet
  facet normal 0.750114 0 -0.661309
    outer loop
      vertex 42.3794 1.5 21.5816
      vertex 42.5477 0 21.7724
      vertex 42.3794 0 21.5816
    endloop
  endfacet
  facet normal 0.860742 0 -0.509041
    outer loop
      vertex 42.0805 0 21.1701
      vertex 41.951 1.5 20.9511
      vertex 42.0805 1.5 21.1701
    endloop
  endfacet
  facet normal 0.860742 0 -0.509041
    outer loop
      vertex 41.951 1.5 20.9511
      vertex 42.0805 0 21.1701
      vertex 41.951 0 20.9511
    endloop
  endfacet
  facet normal 0.987688 0 -0.15644
    outer loop
      vertex 41.5217 0 19.7589
      vertex 41.4819 1.5 19.5076
      vertex 41.5217 1.5 19.7589
    endloop
  endfacet
  facet normal 0.987688 0 -0.15644
    outer loop
      vertex 41.4819 1.5 19.5076
      vertex 41.5217 0 19.7589
      vertex 41.4819 0 19.5076
    endloop
  endfacet
  facet normal 0.999507 0 -0.031411
    outer loop
      vertex 41.458 0 19.2543
      vertex 41.45 1.5 19
      vertex 41.458 1.5 19.2543
    endloop
  endfacet
  facet normal 0.999507 0 -0.031411
    outer loop
      vertex 41.45 1.5 19
      vertex 41.458 0 19.2543
      vertex 41.45 0 19
    endloop
  endfacet
  facet normal 0.960296 0 -0.278982
    outer loop
      vertex 41.6482 0 20.2515
      vertex 41.5772 1.5 20.0072
      vertex 41.6482 1.5 20.2515
    endloop
  endfacet
  facet normal 0.960296 0 -0.278982
    outer loop
      vertex 41.5772 1.5 20.0072
      vertex 41.6482 0 20.2515
      vertex 41.5772 0 20.0072
    endloop
  endfacet
  facet normal -0.975915 0 0.218153
    outer loop
      vertex 49.4228 0 17.9928
      vertex 49.4783 1.5 18.2411
      vertex 49.4228 1.5 17.9928
    endloop
  endfacet
  facet normal -0.975915 0 0.218153
    outer loop
      vertex 49.4783 1.5 18.2411
      vertex 49.4228 0 17.9928
      vertex 49.4783 0 18.2411
    endloop
  endfacet
  facet normal -0.987688 0 0.156438
    outer loop
      vertex 49.4783 0 18.2411
      vertex 49.5181 1.5 18.4924
      vertex 49.4783 1.5 18.2411
    endloop
  endfacet
  facet normal -0.987688 0 0.156438
    outer loop
      vertex 49.5181 1.5 18.4924
      vertex 49.4783 0 18.2411
      vertex 49.5181 0 18.4924
    endloop
  endfacet
  facet normal -0.995563 0 0.0940987
    outer loop
      vertex 49.5181 0 18.4924
      vertex 49.542 1.5 18.7457
      vertex 49.5181 1.5 18.4924
    endloop
  endfacet
  facet normal -0.995563 0 0.0940987
    outer loop
      vertex 49.542 1.5 18.7457
      vertex 49.5181 0 18.4924
      vertex 49.542 0 18.7457
    endloop
  endfacet
  facet normal 0.827081 -0 0.562083
    outer loop
      vertex 42.0805 0 16.8299
      vertex 42.2235 1.5 16.6195
      vertex 42.0805 1.5 16.8299
    endloop
  endfacet
  facet normal 0.827081 0 0.562083
    outer loop
      vertex 42.2235 1.5 16.6195
      vertex 42.0805 0 16.8299
      vertex 42.2235 0 16.6195
    endloop
  endfacet
  facet normal 0.790153 -0 0.61291
    outer loop
      vertex 42.2235 0 16.6195
      vertex 42.3794 1.5 16.4184
      vertex 42.2235 1.5 16.6195
    endloop
  endfacet
  facet normal 0.790153 0 0.61291
    outer loop
      vertex 42.3794 1.5 16.4184
      vertex 42.2235 0 16.6195
      vertex 42.3794 0 16.4184
    endloop
  endfacet
  facet normal 0.750111 -0 0.661312
    outer loop
      vertex 42.3794 0 16.4184
      vertex 42.5477 1.5 16.2276
      vertex 42.3794 1.5 16.4184
    endloop
  endfacet
  facet normal 0.750111 0 0.661312
    outer loop
      vertex 42.5477 1.5 16.2276
      vertex 42.3794 0 16.4184
      vertex 42.5477 0 16.2276
    endloop
  endfacet
  facet normal -0.999507 0 -0.031411
    outer loop
      vertex 49.55 0 19
      vertex 49.542 1.5 19.2543
      vertex 49.55 1.5 19
    endloop
  endfacet
  facet normal -0.999507 -0 -0.031411
    outer loop
      vertex 49.542 1.5 19.2543
      vertex 49.55 0 19
      vertex 49.542 0 19.2543
    endloop
  endfacet
  facet normal -0.0941061 0 -0.995562
    outer loop
      vertex 45.7543 0 23.042
      vertex 46.0076 1.5 23.0181
      vertex 46.0076 0 23.0181
    endloop
  endfacet
  facet normal -0.0941061 0 -0.995562
    outer loop
      vertex 46.0076 1.5 23.0181
      vertex 45.7543 0 23.042
      vertex 45.7543 1.5 23.042
    endloop
  endfacet
  facet normal -0.338734 0 -0.940882
    outer loop
      vertex 46.7515 0 22.8518
      vertex 46.9909 1.5 22.7656
      vertex 46.9909 0 22.7656
    endloop
  endfacet
  facet normal -0.338734 0 -0.940882
    outer loop
      vertex 46.9909 1.5 22.7656
      vertex 46.7515 0 22.8518
      vertex 46.7515 1.5 22.8518
    endloop
  endfacet
  facet normal -0.707103 0 -0.707111
    outer loop
      vertex 48.2724 0 21.9523
      vertex 48.4523 1.5 21.7724
      vertex 48.4523 0 21.7724
    endloop
  endfacet
  facet normal -0.707103 0 -0.707111
    outer loop
      vertex 48.4523 1.5 21.7724
      vertex 48.2724 0 21.9523
      vertex 48.2724 1.5 21.9523
    endloop
  endfacet
  facet normal -0.612914 0 -0.79015
    outer loop
      vertex 47.8805 0 22.2765
      vertex 48.0816 1.5 22.1206
      vertex 48.0816 0 22.1206
    endloop
  endfacet
  facet normal -0.612914 0 -0.79015
    outer loop
      vertex 48.0816 1.5 22.1206
      vertex 47.8805 0 22.2765
      vertex 47.8805 1.5 22.2765
    endloop
  endfacet
  facet normal -0.453984 0 -0.89101
    outer loop
      vertex 47.2244 0 22.6645
      vertex 47.4511 1.5 22.549
      vertex 47.4511 0 22.549
    endloop
  endfacet
  facet normal -0.453984 0 -0.89101
    outer loop
      vertex 47.4511 1.5 22.549
      vertex 47.2244 0 22.6645
      vertex 47.2244 1.5 22.6645
    endloop
  endfacet
  facet normal -0.790153 0 -0.61291
    outer loop
      vertex 48.7765 0 21.3805
      vertex 48.6206 1.5 21.5816
      vertex 48.7765 1.5 21.3805
    endloop
  endfacet
  facet normal -0.790153 -0 -0.61291
    outer loop
      vertex 48.6206 1.5 21.5816
      vertex 48.7765 0 21.3805
      vertex 48.6206 0 21.5816
    endloop
  endfacet
  facet normal -0.917757 0 -0.397143
    outer loop
      vertex 49.2656 0 20.4909
      vertex 49.1646 1.5 20.7244
      vertex 49.2656 1.5 20.4909
    endloop
  endfacet
  facet normal -0.917757 -0 -0.397143
    outer loop
      vertex 49.1646 1.5 20.7244
      vertex 49.2656 0 20.4909
      vertex 49.1646 0 20.7244
    endloop
  endfacet
  facet normal -0.960292 0 -0.278996
    outer loop
      vertex 49.4228 0 20.0072
      vertex 49.3518 1.5 20.2515
      vertex 49.4228 1.5 20.0072
    endloop
  endfacet
  facet normal -0.960292 -0 -0.278996
    outer loop
      vertex 49.3518 1.5 20.2515
      vertex 49.4228 0 20.0072
      vertex 49.3518 0 20.2515
    endloop
  endfacet
  facet normal 0.278989 0 -0.960294
    outer loop
      vertex 44.2485 0 22.8518
      vertex 44.4928 1.5 22.9228
      vertex 44.4928 0 22.9228
    endloop
  endfacet
  facet normal 0.278989 0 -0.960294
    outer loop
      vertex 44.4928 1.5 22.9228
      vertex 44.2485 0 22.8518
      vertex 44.2485 1.5 22.8518
    endloop
  endfacet
  facet normal 0.0314108 0 -0.999507
    outer loop
      vertex 45.2457 0 23.042
      vertex 45.5 1.5 23.05
      vertex 45.5 0 23.05
    endloop
  endfacet
  facet normal 0.0314108 0 -0.999507
    outer loop
      vertex 45.5 1.5 23.05
      vertex 45.2457 0 23.042
      vertex 45.2457 1.5 23.042
    endloop
  endfacet
  facet normal 0.39715 0 -0.917754
    outer loop
      vertex 43.7756 0 22.6645
      vertex 44.0091 1.5 22.7656
      vertex 44.0091 0 22.7656
    endloop
  endfacet
  facet normal 0.39715 0 -0.917754
    outer loop
      vertex 44.0091 1.5 22.7656
      vertex 43.7756 0 22.6645
      vertex 43.7756 1.5 22.6645
    endloop
  endfacet
  facet normal 0.612914 0 -0.79015
    outer loop
      vertex 42.9184 0 22.1206
      vertex 43.1195 1.5 22.2765
      vertex 43.1195 0 22.2765
    endloop
  endfacet
  facet normal 0.612914 0 -0.79015
    outer loop
      vertex 43.1195 1.5 22.2765
      vertex 42.9184 0 22.1206
      vertex 42.9184 1.5 22.1206
    endloop
  endfacet
  facet normal 0.790153 0 -0.61291
    outer loop
      vertex 42.3794 0 21.5816
      vertex 42.2235 1.5 21.3805
      vertex 42.3794 1.5 21.5816
    endloop
  endfacet
  facet normal 0.790153 0 -0.61291
    outer loop
      vertex 42.2235 1.5 21.3805
      vertex 42.3794 0 21.5816
      vertex 42.2235 0 21.3805
    endloop
  endfacet
  facet normal 0.707103 0 -0.707111
    outer loop
      vertex 42.5477 0 21.7724
      vertex 42.7276 1.5 21.9523
      vertex 42.7276 0 21.9523
    endloop
  endfacet
  facet normal 0.707103 0 -0.707111
    outer loop
      vertex 42.7276 1.5 21.9523
      vertex 42.5477 0 21.7724
      vertex 42.5477 1.5 21.7724
    endloop
  endfacet
  facet normal 0.891005 0 -0.453993
    outer loop
      vertex 41.951 0 20.9511
      vertex 41.8354 1.5 20.7244
      vertex 41.951 1.5 20.9511
    endloop
  endfacet
  facet normal 0.891005 0 -0.453993
    outer loop
      vertex 41.8354 1.5 20.7244
      vertex 41.951 0 20.9511
      vertex 41.8354 0 20.7244
    endloop
  endfacet
  facet normal 0.995563 0 -0.094098
    outer loop
      vertex 41.4819 0 19.5076
      vertex 41.458 1.5 19.2543
      vertex 41.4819 1.5 19.5076
    endloop
  endfacet
  facet normal 0.995563 0 -0.094098
    outer loop
      vertex 41.458 1.5 19.2543
      vertex 41.4819 0 19.5076
      vertex 41.458 0 19.2543
    endloop
  endfacet
  facet normal 0.940879 0 -0.338743
    outer loop
      vertex 41.7344 0 20.4909
      vertex 41.6482 1.5 20.2515
      vertex 41.7344 1.5 20.4909
    endloop
  endfacet
  facet normal 0.940879 0 -0.338743
    outer loop
      vertex 41.6482 1.5 20.2515
      vertex 41.7344 0 20.4909
      vertex 41.6482 0 20.2515
    endloop
  endfacet
endsolid OpenSCAD_Model
